<svg width="15" height="14" viewBox="0 0 15 14" fill="none" xmlns="http://www.w3.org/2000/svg">
<path opacity="0.5" d="M7.25 3.40625C7.875 3.40625 8.46875 3.59375 9.03125 3.90625C9.59375 4.21875 10.0312 4.65625 10.3438 5.21875C10.6562 5.78125 10.8438 6.375 10.8438 7C10.8438 7.65625 10.6562 8.25 10.3438 8.8125C10.0312 9.375 9.59375 9.8125 9.03125 10.125C8.46875 10.4375 7.875 10.5938 7.25 10.5938C6.59375 10.5938 6 10.4375 5.4375 10.125C4.875 9.8125 4.4375 9.375 4.125 8.8125C3.8125 8.25 3.65625 7.65625 3.65625 7C3.65625 6.375 3.8125 5.78125 4.125 5.21875C4.4375 4.65625 4.875 4.21875 5.4375 3.90625C6 3.59375 6.59375 3.40625 7.25 3.40625ZM7.25 9.34375C7.875 9.34375 8.4375 9.125 8.90625 8.65625C9.34375 8.21875 9.59375 7.65625 9.59375 7C9.59375 6.375 9.34375 5.8125 8.90625 5.34375C8.4375 4.90625 7.875 4.65625 7.25 4.65625C6.59375 4.65625 6.03125 4.90625 5.59375 5.34375C5.125 5.8125 4.90625 6.375 4.90625 7C4.90625 7.65625 5.125 8.21875 5.59375 8.65625C6.03125 9.125 6.59375 9.34375 7.25 9.34375ZM11.8438 3.25C11.8438 3.03125 11.75 2.84375 11.5938 2.65625C11.4062 2.5 11.2188 2.40625 11 2.40625C10.75 2.40625 10.5625 2.5 10.4062 2.65625C10.2188 2.84375 10.1562 3.03125 10.1562 3.25C10.1562 3.5 10.2188 3.6875 10.4062 3.84375C10.5625 4.03125 10.75 4.09375 11 4.09375C11.2188 4.09375 11.4062 4.03125 11.5625 3.84375C11.7188 3.6875 11.8125 3.5 11.8438 3.25ZM14.2188 4.09375C14.2188 4.6875 14.25 5.65625 14.25 7C14.25 8.375 14.2188 9.34375 14.1875 9.9375C14.1562 10.5312 14.0625 11.0312 13.9375 11.4688C13.75 12 13.4375 12.4688 13.0625 12.8438C12.6875 13.2188 12.2188 13.5 11.7188 13.6875C11.2812 13.8438 10.75 13.9375 10.1562 13.9688C9.5625 14 8.59375 14 7.25 14C5.875 14 4.90625 14 4.3125 13.9688C3.71875 13.9375 3.21875 13.8438 2.78125 13.6562C2.25 13.5 1.78125 13.2188 1.40625 12.8438C1.03125 12.4688 0.75 12 0.5625 11.4688C0.40625 11.0312 0.3125 10.5312 0.28125 9.9375C0.25 9.34375 0.25 8.375 0.25 7C0.25 5.65625 0.25 4.6875 0.28125 4.09375C0.3125 3.5 0.40625 2.96875 0.5625 2.53125C0.75 2.03125 1.03125 1.5625 1.40625 1.1875C1.78125 0.8125 2.25 0.5 2.78125 0.3125C3.21875 0.1875 3.71875 0.09375 4.3125 0.0625C4.90625 0.03125 5.875 0 7.25 0C8.59375 0 9.5625 0.03125 10.1562 0.0625C10.75 0.09375 11.2812 0.1875 11.7188 0.3125C12.2188 0.5 12.6875 0.8125 13.0625 1.1875C13.4375 1.5625 13.75 2.03125 13.9375 2.53125C14.0625 2.96875 14.1562 3.5 14.2188 4.09375ZM12.7188 11.125C12.8438 10.7812 12.9062 10.2188 12.9688 9.4375C12.9688 9 13 8.34375 13 7.5V6.5C13 5.65625 12.9688 5 12.9688 4.5625C12.9062 3.78125 12.8438 3.21875 12.7188 2.875C12.4688 2.25 12 1.78125 11.375 1.53125C11.0312 1.40625 10.4688 1.34375 9.6875 1.28125C9.21875 1.28125 8.5625 1.25 7.75 1.25H6.75C5.90625 1.25 5.25 1.28125 4.8125 1.28125C4.03125 1.34375 3.46875 1.40625 3.125 1.53125C2.46875 1.78125 2.03125 2.25 1.78125 2.875C1.65625 3.21875 1.5625 3.78125 1.53125 4.5625C1.5 5.03125 1.5 5.6875 1.5 6.5V7.5C1.5 8.34375 1.5 9 1.53125 9.4375C1.5625 10.2188 1.65625 10.7812 1.78125 11.125C2.03125 11.7812 2.5 12.2188 3.125 12.4688C3.46875 12.5938 4.03125 12.6875 4.8125 12.7188C5.25 12.75 5.90625 12.75 6.75 12.75H7.75C8.59375 12.75 9.25 12.75 9.6875 12.7188C10.4688 12.6875 11.0312 12.5938 11.375 12.4688C12 12.2188 12.4688 11.75 12.7188 11.125Z" fill="white"/>
</svg>
