<svg width="117" height="46" viewBox="0 0 117 46" fill="none" xmlns="http://www.w3.org/2000/svg">
<path id="logo maria ana" fill-rule="evenodd" clip-rule="evenodd" d="M45.7646 18.9484V18.3489L46.1816 18.2968C46.6855 18.2273 47.0678 18.1491 47.3284 18.0622C47.6064 17.958 47.7976 17.7408 47.9018 17.4106C48.0061 17.0631 48.0582 16.4984 48.0582 15.7165V10.217C48.0582 9.31348 47.8671 8.74008 47.4848 8.49681C47.1199 8.23618 46.6073 8.10586 45.947 8.10586H45.7646V7.50639C46.477 7.50639 47.1633 7.48901 47.8236 7.45426C48.4839 7.40213 49.1703 7.31525 49.8827 7.19362V15.7165C49.8827 16.4984 49.9348 17.0631 50.039 17.4106C50.1433 17.7408 50.3258 17.958 50.5864 18.0622C50.8644 18.1491 51.2554 18.2273 51.7593 18.2968L52.1763 18.3489V18.9484L48.9704 18.8702L45.7646 18.9484ZM47.8236 5.31702L48.8401 1.45958C48.9791 0.903546 49.1442 0.521277 49.3353 0.312767C49.5438 0.104256 49.7523 0 49.9609 0C50.1694 0 50.3518 0.0781915 50.5082 0.234575C50.682 0.390958 50.7688 0.625533 50.7688 0.938299C50.7688 1.14681 50.7254 1.36401 50.6385 1.58989C50.569 1.79841 50.4648 2.00692 50.3257 2.21543L48.397 5.31702H47.8236ZM54.9346 18.5314C55.4906 18.9484 56.1857 19.1569 57.0197 19.1569C57.9059 19.1569 58.7225 18.9484 59.4697 18.5314C60.2169 18.1144 60.8337 17.5149 61.3202 16.733C61.355 17.4628 61.5114 18.0536 61.7894 18.5053C62.0848 18.9397 62.6147 19.1569 63.3793 19.1569C64.0048 19.1569 64.4913 19.0092 64.8389 18.7138C65.2038 18.4184 65.4557 18.0188 65.5947 17.5149L65.1256 17.3325C65.0561 17.5583 64.9257 17.7669 64.7346 17.958C64.5435 18.1491 64.3176 18.2447 64.0569 18.2447C63.6573 18.2447 63.3967 18.0362 63.275 17.6192C63.1708 17.2021 63.1186 16.6114 63.1186 15.8468V11.1553C63.1186 9.69575 62.7972 8.64451 62.1543 8.0016C61.5114 7.35869 60.4949 7.03724 59.1048 7.03724C58.4619 7.03724 57.7929 7.12411 57.0979 7.29787C56.4029 7.45426 55.8121 7.72358 55.3256 8.10585C54.8564 8.47075 54.6218 8.96596 54.6218 9.59149C54.6218 9.92164 54.7261 10.2083 54.9346 10.4516C55.1431 10.6775 55.4037 10.7904 55.7165 10.7904C56.0466 10.7904 56.3247 10.7036 56.5506 10.5298C56.7938 10.3387 56.9154 10.078 56.9154 9.74788C56.9154 9.50461 56.872 9.27004 56.7851 9.04415C56.7677 8.95727 56.7417 8.87039 56.7069 8.78351C56.6896 8.69663 56.6809 8.61844 56.6809 8.54894C56.6809 8.2188 56.9068 7.99291 57.3585 7.87128C57.8103 7.74965 58.2708 7.68883 58.7399 7.68883C59.7303 7.68883 60.3993 7.92341 60.7468 8.39256C61.1117 8.8617 61.2942 9.57412 61.2942 10.5298V11.3638C60.8076 11.555 60.2256 11.7895 59.5479 12.0676C58.8702 12.3456 58.1926 12.6757 57.5149 13.058C56.6114 13.5445 55.8208 14.0919 55.1431 14.7C54.4654 15.2908 54.1266 15.9684 54.1266 16.733C54.1266 17.4975 54.3959 18.097 54.9346 18.5314ZM56.5766 17.7755C56.2986 17.4802 56.1596 17.0892 56.1596 16.6027C56.1596 16.064 56.316 15.5688 56.6287 15.117C56.9415 14.6479 57.3498 14.2135 57.8537 13.8138C58.375 13.4142 58.931 13.058 59.5218 12.7452C60.13 12.4151 60.7208 12.1284 61.2942 11.8851V15.6904C61.1204 16.1248 60.8598 16.5332 60.5123 16.9154C60.1647 17.2803 59.7564 17.5844 59.2873 17.8277C58.8355 18.0709 58.3576 18.1926 57.8537 18.1926C57.2977 18.1926 56.872 18.0536 56.5766 17.7755ZM32.1564 45.7719C32.5169 45.924 32.9083 46 33.3307 46C33.7531 46 34.1417 45.924 34.4966 45.7719C34.857 45.6198 35.1668 45.4058 35.4259 45.1298C35.6906 44.8538 35.8962 44.5272 36.0426 44.1498C36.189 43.7668 36.2623 43.3472 36.2623 42.891C36.2623 42.4348 36.189 42.018 36.0426 41.6407C35.8962 41.2633 35.6906 40.9367 35.4259 40.6607C35.1668 40.3847 34.857 40.1707 34.4966 40.0186C34.1417 39.8665 33.7531 39.7905 33.3307 39.7905C32.9083 39.7905 32.5169 39.8665 32.1564 40.0186C31.8016 40.1707 31.4918 40.3847 31.2271 40.6607C30.968 40.9367 30.7652 41.2633 30.6188 41.6407C30.4724 42.018 30.3992 42.4348 30.3992 42.891C30.3992 43.3472 30.4724 43.7668 30.6188 44.1498C30.7652 44.5272 30.968 44.8538 31.2271 45.1298C31.4918 45.4058 31.8016 45.6198 32.1564 45.7719ZM34.5219 45.4002C34.2178 45.6311 33.8207 45.7465 33.3307 45.7465C32.8463 45.7465 32.4493 45.6311 32.1395 45.4002C31.8354 45.1692 31.6129 44.8426 31.4721 44.4202C31.3313 43.9921 31.2609 43.4824 31.2609 42.891C31.2609 42.2996 31.3313 41.7927 31.4721 41.3703C31.6129 40.9423 31.8354 40.6156 32.1395 40.3903C32.4493 40.1594 32.8463 40.044 33.3307 40.044C33.8207 40.044 34.2178 40.1594 34.5219 40.3903C34.8261 40.6156 35.0485 40.9423 35.1893 41.3703C35.3301 41.7927 35.4005 42.2996 35.4005 42.891C35.4005 43.4824 35.3301 43.9921 35.1893 44.4202C35.0485 44.8426 34.8261 45.1692 34.5219 45.4002ZM63.9032 46C63.385 46 62.9119 45.8733 62.4839 45.6198C62.0614 45.3664 61.7235 45.0087 61.4701 44.5469C61.2222 44.085 61.0983 43.5387 61.0983 42.9079C61.0983 42.4517 61.1744 42.0321 61.3264 41.6491C61.4785 41.2661 61.6869 40.9367 61.9516 40.6607C62.2163 40.3847 62.5205 40.1707 62.864 40.0186C63.2076 39.8665 63.5709 39.7905 63.9539 39.7905C64.2017 39.7905 64.4241 39.8215 64.6213 39.8834C64.8184 39.9454 64.9789 40.0045 65.1028 40.0608C65.2493 40.1228 65.3506 40.165 65.407 40.1876C65.4689 40.2101 65.5365 40.2214 65.6097 40.2214C65.6886 40.2214 65.7421 40.1876 65.7702 40.12C65.804 40.0468 65.8209 39.9764 65.8209 39.9088H66.0321L66.0152 40.8803L66.0321 41.8688H65.8209C65.8097 41.4858 65.7083 41.1591 65.5168 40.8888C65.3309 40.6128 65.0944 40.4044 64.8071 40.2636C64.5255 40.1172 64.2327 40.044 63.9285 40.044C63.2695 40.044 62.7767 40.2918 62.4501 40.7874C62.1234 41.283 61.9601 41.9899 61.9601 42.9079C61.9601 43.8767 62.1347 44.5919 62.4839 45.0538C62.8331 45.5156 63.323 45.7465 63.9539 45.7465C64.2693 45.7465 64.548 45.6959 64.7902 45.5945C65.0324 45.4931 65.2239 45.3607 65.3647 45.1974C65.5055 45.0284 65.5759 44.8538 65.5759 44.6736V44.4371C65.5759 44.1892 65.5168 44.0118 65.3985 43.9048C65.2859 43.7978 65.0747 43.7302 64.7649 43.7021L64.4016 43.6683V43.4655L65.804 43.4993L67.1051 43.4655V43.6683L66.7249 43.7021C66.5728 43.7133 66.4489 43.7725 66.3532 43.8795C66.2574 43.9865 66.2095 44.1723 66.2095 44.4371V44.5891C66.2095 44.7187 66.2293 44.8398 66.2687 44.9524C66.3137 45.065 66.356 45.1608 66.3954 45.2396L66.5137 45.4509L66.3194 45.5776C66.2462 45.4593 66.1729 45.3805 66.0997 45.341C66.0321 45.296 65.973 45.2734 65.9223 45.2734C65.8322 45.2734 65.7505 45.296 65.6773 45.341C65.6041 45.3861 65.5252 45.4396 65.4408 45.5015C65.345 45.5691 65.2295 45.6423 65.0944 45.7212C64.9648 45.8 64.8043 45.8648 64.6128 45.9155C64.4213 45.9718 64.1848 46 63.9032 46ZM88.25 45.7719C88.6105 45.924 89.0019 46 89.4243 46C89.8467 46 90.2354 45.924 90.5902 45.7719C90.9506 45.6198 91.2604 45.4058 91.5195 45.1298C91.7842 44.8538 91.9898 44.5272 92.1362 44.1498C92.2827 43.7668 92.3559 43.3472 92.3559 42.891C92.3559 42.4348 92.2827 42.018 92.1362 41.6407C91.9898 41.2633 91.7842 40.9367 91.5195 40.6607C91.2604 40.3847 90.9506 40.1707 90.5902 40.0186C90.2354 39.8665 89.8467 39.7905 89.4243 39.7905C89.0019 39.7905 88.6105 39.8665 88.25 40.0186C87.8952 40.1707 87.5854 40.3847 87.3207 40.6607C87.0616 40.9367 86.8589 41.2633 86.7124 41.6407C86.566 42.018 86.4928 42.4348 86.4928 42.891C86.4928 43.3472 86.566 43.7668 86.7124 44.1498C86.8589 44.5272 87.0616 44.8538 87.3207 45.1298C87.5854 45.4058 87.8952 45.6198 88.25 45.7719ZM90.6155 45.4002C90.3114 45.6311 89.9143 45.7465 89.4243 45.7465C88.94 45.7465 88.5429 45.6311 88.2331 45.4002C87.929 45.1692 87.7065 44.8426 87.5657 44.4202C87.4249 43.9921 87.3545 43.4824 87.3545 42.891C87.3545 42.2996 87.4249 41.7927 87.5657 41.3703C87.7065 40.9423 87.929 40.6156 88.2331 40.3903C88.5429 40.1594 88.94 40.044 89.4243 40.044C89.9143 40.044 90.3114 40.1594 90.6155 40.3903C90.9197 40.6156 91.1421 40.9423 91.2829 41.3703C91.4237 41.7927 91.4942 42.2996 91.4942 42.891C91.4942 43.4824 91.4237 43.9921 91.2829 44.4202C91.1421 44.8426 90.9197 45.1692 90.6155 45.4002ZM79.616 45.7212V45.9324L80.8664 45.9071H82.4885C82.8996 45.9071 83.291 45.8451 83.6628 45.7212C84.0401 45.5917 84.3752 45.4002 84.6681 45.1467C84.961 44.8933 85.1919 44.5779 85.3609 44.2005C85.5298 43.8232 85.6143 43.3838 85.6143 42.8826C85.6143 42.1786 85.4763 41.6097 85.2003 41.176C84.9244 40.7367 84.5217 40.4157 83.9922 40.2129C83.4685 40.0102 82.8264 39.9088 82.066 39.9088H80.8748L79.6245 39.8834V40.0946L79.7934 40.1115C79.9906 40.1341 80.1398 40.1651 80.2412 40.2045C80.3482 40.2383 80.4214 40.3143 80.4609 40.4326C80.5003 40.5509 80.52 40.7508 80.52 41.0324V44.7834C80.52 45.0594 80.4975 45.2594 80.4524 45.3833C80.413 45.5015 80.3398 45.5804 80.2328 45.6198C80.1314 45.6536 79.9821 45.6818 79.785 45.7043L79.616 45.7212ZM82.5222 45.6536H81.8041C81.6352 45.6536 81.5113 45.6057 81.4324 45.51C81.3536 45.4142 81.3029 45.2932 81.2803 45.1467C81.2578 44.9947 81.2466 44.8369 81.2466 44.6736V40.1622H82.311C82.9249 40.1622 83.4121 40.2721 83.7726 40.4917C84.1387 40.7057 84.4006 41.0183 84.5583 41.4295C84.7216 41.835 84.8033 42.325 84.8033 42.8995C84.8033 43.8401 84.5949 44.5356 84.1781 44.9862C83.7613 45.4311 83.2094 45.6536 82.5222 45.6536ZM72.8566 45.8878V45.9324L73.8789 45.9071L74.9518 45.9324V45.7212L74.7829 45.7043C74.5688 45.6874 74.4139 45.6508 74.3182 45.5945C74.2281 45.5382 74.183 45.4565 74.183 45.3495C74.183 45.2875 74.1971 45.2171 74.2253 45.1383C74.2534 45.0538 74.2872 44.9609 74.3266 44.8595L74.7829 43.7612H77.1653L77.6046 44.8595C77.6834 45.051 77.7229 45.2031 77.7229 45.3157C77.7229 45.4283 77.6806 45.5156 77.5961 45.5776C77.5116 45.6395 77.3708 45.6818 77.1737 45.7043L77.0048 45.7212V45.9324L78.3565 45.9071L79.4041 45.9324V45.7212L79.2351 45.7043C79.0098 45.6818 78.8324 45.6058 78.7029 45.4762C78.5733 45.3467 78.4522 45.1439 78.3396 44.8679L76.3458 39.9088H76.0585L74.0141 44.8679C73.9296 45.0707 73.8395 45.2312 73.7437 45.3495C73.6536 45.4621 73.5438 45.5438 73.4142 45.5945C73.3123 45.6362 73.1857 45.6702 73.0343 45.6967L73.0057 45.5945C72.9607 45.617 72.9072 45.6395 72.8452 45.6621C72.7889 45.6846 72.7297 45.6959 72.6678 45.6959C72.572 45.6959 72.4763 45.6621 72.3806 45.5945C72.2904 45.5213 72.206 45.3974 72.1271 45.2228C72.0539 45.0425 71.9919 44.7947 71.9412 44.4793C71.868 43.9837 71.6991 43.6091 71.4343 43.3557C71.1753 43.0966 70.8373 42.953 70.4206 42.9248C70.7078 42.8798 70.9725 42.8037 71.2147 42.6967C71.4625 42.5841 71.6596 42.4236 71.8061 42.2152C71.9581 42.0011 72.0342 41.7252 72.0342 41.3872C72.0342 41.0042 71.9328 40.7057 71.73 40.4917C71.5329 40.2777 71.271 40.1284 70.9443 40.044C70.6177 39.9538 70.2629 39.9088 69.8799 39.9088H68.6971L67.4468 39.8834V40.0946L67.6157 40.1115C67.8129 40.1341 67.9621 40.1651 68.0635 40.2045C68.1705 40.2383 68.2437 40.3143 68.2831 40.4326C68.3226 40.5509 68.3423 40.7508 68.3423 41.0324V44.7834C68.3423 45.0594 68.3226 45.2594 68.2831 45.3833C68.2437 45.5015 68.1705 45.5804 68.0635 45.6198C67.9621 45.6536 67.8129 45.6818 67.6157 45.7043L67.4468 45.7212V45.9324L68.6971 45.9071H68.7056L69.9559 45.9324V45.7212L69.7869 45.7043C69.5954 45.6818 69.4462 45.6536 69.3392 45.6198C69.2322 45.5804 69.1589 45.5015 69.1195 45.3833C69.0801 45.2594 69.0604 45.0594 69.0604 44.7834V42.984H69.4237C69.7897 42.984 70.0854 43.0403 70.3107 43.1529C70.5416 43.2656 70.7191 43.4176 70.843 43.6091C70.9725 43.795 71.0654 44.0006 71.1218 44.2259C71.1837 44.4511 71.2288 44.6764 71.2569 44.9017C71.302 45.2115 71.3977 45.4734 71.5442 45.6874C71.6962 45.8958 71.9272 46 72.2369 46C72.3946 46 72.5495 45.9775 72.7016 45.9324C72.7575 45.9179 72.8091 45.9031 72.8566 45.8878ZM74.8927 43.4909H77.0639L75.9994 40.8128L74.8927 43.4909ZM69.0604 40.1284H69.8968C70.3924 40.1284 70.7388 40.2439 70.9359 40.4748C71.133 40.7001 71.2316 41.0211 71.2316 41.4379C71.2316 41.8772 71.1218 42.2067 70.9021 42.4264C70.6881 42.646 70.3107 42.7559 69.77 42.7559H69.0604V40.1284ZM55.4263 45.7212V45.9324L56.6767 45.9071H60.1489L60.1743 45.1467L60.2334 44.1329H60.0222C59.9884 44.5666 59.9265 44.8961 59.8363 45.1214C59.7462 45.341 59.6082 45.4875 59.4224 45.5607C59.2422 45.6339 58.9887 45.6705 58.662 45.6705H57.8764C57.5553 45.6705 57.3357 45.6283 57.2174 45.5438C57.0991 45.4537 57.04 45.2734 57.04 45.0031V42.8657H57.9862C58.1833 42.8657 58.3326 42.953 58.4339 43.1276C58.5353 43.2965 58.586 43.5866 58.586 43.9978H58.7972L58.7719 42.7474L58.7972 41.6153H58.586C58.5747 41.8913 58.541 42.1025 58.4846 42.249C58.4339 42.3954 58.3663 42.4968 58.2819 42.5531C58.1974 42.6038 58.0988 42.6291 57.9862 42.6291H57.04V40.1538H58.1551C58.4705 40.1538 58.7268 40.1679 58.9239 40.196C59.1267 40.2186 59.2872 40.2692 59.4055 40.3481C59.5238 40.4213 59.6139 40.534 59.6758 40.686C59.7434 40.8381 59.7969 41.0409 59.8363 41.2943H60.0391L59.9715 40.5171L59.9546 39.9088H56.6767L55.4263 39.8834V40.0947L55.5953 40.1115C55.7924 40.1341 55.9417 40.1651 56.0431 40.2045C56.1501 40.2383 56.2233 40.3143 56.2627 40.4326C56.3022 40.5509 56.3219 40.7508 56.3219 41.0324V44.7834C56.3219 45.0594 56.3022 45.2594 56.2627 45.3833C56.2233 45.5015 56.1501 45.5804 56.0431 45.6198C55.9417 45.6536 55.7924 45.6818 55.5953 45.7043L55.4263 45.7212ZM50.542 45.9324V45.7212L50.7279 45.7043C50.9588 45.6818 51.1334 45.6536 51.2517 45.6198C51.3756 45.5804 51.4601 45.5015 51.5051 45.3833C51.5558 45.2594 51.5812 45.0594 51.5812 44.7834V40.1369H50.3899C50.1309 40.1369 49.9253 40.1876 49.7732 40.289C49.6268 40.3847 49.4972 40.5424 49.3846 40.7621C49.2776 40.9817 49.1509 41.2746 49.0044 41.6407L48.827 41.5984L49.0382 40.5593L49.1311 39.8834L51.5389 39.9088H52.3415L54.7577 39.8834L54.8506 40.5593L55.0618 41.5984L54.876 41.6491C54.7464 41.3225 54.6253 41.0465 54.5127 40.8212C54.4057 40.5959 54.279 40.4269 54.1325 40.3143C53.9861 40.196 53.7918 40.1369 53.5496 40.1369H52.2993V44.7834C52.2993 45.0594 52.3218 45.2594 52.3668 45.3833C52.4175 45.5015 52.5048 45.5804 52.6287 45.6198C52.7526 45.6536 52.9272 45.6818 53.1525 45.7043L53.3384 45.7212V45.9324L51.9613 45.9071L50.542 45.9324ZM42.5307 45.7297V45.9409L43.5783 45.9071L44.6597 45.9409V45.7297L44.4907 45.7128C44.2992 45.6902 44.15 45.6621 44.043 45.6283C43.936 45.5945 43.8627 45.5156 43.8233 45.3917C43.7839 45.2678 43.7642 45.0651 43.7642 44.7834V40.7874C43.9106 40.962 44.0909 41.1817 44.3049 41.4464C44.5189 41.7111 44.7498 42.004 44.9976 42.325C45.2454 42.646 45.4933 42.9783 45.7411 43.3219C45.9945 43.6598 46.2367 43.9921 46.4676 44.3188C46.6986 44.6455 46.9013 44.9468 47.0759 45.2228C47.2561 45.4931 47.3913 45.7212 47.4814 45.9071H47.7349V41.0324C47.7349 40.7508 47.7546 40.5509 47.794 40.4326C47.8334 40.3143 47.9067 40.2383 48.0137 40.2045C48.1207 40.1651 48.2699 40.1341 48.4614 40.1115L48.6304 40.0946V39.8834L47.5997 39.9088L46.5014 39.8834V40.0946L46.6704 40.1115C46.8675 40.1284 47.0168 40.1566 47.1182 40.196C47.2252 40.2298 47.2984 40.3087 47.3378 40.4326C47.3772 40.5509 47.3969 40.7508 47.3969 41.0324V44.2259C47.3012 44.0963 47.1688 43.9217 46.9999 43.7021C46.8309 43.4824 46.6394 43.2346 46.4254 42.9586C46.217 42.6826 46.0002 42.3982 45.7749 42.1053C45.5496 41.8068 45.3299 41.5168 45.1159 41.2352C44.9075 40.9536 44.716 40.6973 44.5414 40.4664C44.3725 40.2355 44.2373 40.0496 44.1359 39.9088L42.4969 39.8834V40.1031H42.7504C42.9475 40.1031 43.0968 40.1425 43.1982 40.2214C43.2995 40.2946 43.3756 40.3622 43.4263 40.4241V44.7834C43.4263 45.0651 43.4065 45.2678 43.3671 45.3917C43.3277 45.5156 43.2545 45.5945 43.1475 45.6283C43.0461 45.6621 42.8968 45.6902 42.6997 45.7128L42.5307 45.7297ZM39.355 45.9324V45.7212L39.524 45.7043C39.7211 45.6818 39.8704 45.6536 39.9718 45.6198C40.0788 45.5804 40.152 45.5015 40.1914 45.3833C40.2308 45.2594 40.2506 45.0594 40.2506 44.7834V41.0324C40.2506 40.7508 40.2308 40.5509 40.1914 40.4326C40.152 40.3143 40.0788 40.2383 39.9718 40.2045C39.8704 40.1651 39.7211 40.1341 39.524 40.1115L39.355 40.0947V39.8834L40.6054 39.9088H40.6138L41.8642 39.8834V40.0947L41.6952 40.1115C41.5037 40.1341 41.3545 40.1651 41.2475 40.2045C41.1404 40.2383 41.0672 40.3143 41.0278 40.4326C40.9884 40.5509 40.9687 40.7508 40.9687 41.0324V44.7834C40.9687 45.0594 40.9884 45.2594 41.0278 45.3833C41.0672 45.5015 41.1404 45.5804 41.2475 45.6198C41.3545 45.6536 41.5037 45.6818 41.6952 45.7043L41.8642 45.7212V45.9324L40.6138 45.9071H40.6054L39.355 45.9324ZM29.2118 46C28.902 46 28.6711 45.8958 28.519 45.6874C28.3726 45.4734 28.2769 45.2115 28.2318 44.9017C28.2036 44.6764 28.1586 44.4511 28.0966 44.2259C28.0403 44.0006 27.9474 43.795 27.8178 43.6091C27.6939 43.4176 27.5165 43.2656 27.2856 43.1529C27.0603 43.0403 26.7646 42.984 26.3985 42.984H26.0352V44.7834C26.0352 45.0594 26.055 45.2594 26.0944 45.3833C26.1338 45.5015 26.207 45.5804 26.314 45.6198C26.4211 45.6536 26.5703 45.6818 26.7618 45.7043L26.9308 45.7212V45.9324L25.6804 45.9071H25.672L24.4216 45.9324V45.7212L24.5906 45.7043C24.7877 45.6818 24.937 45.6536 25.0383 45.6198C25.1454 45.5804 25.2186 45.5015 25.258 45.3833C25.2974 45.2594 25.3171 45.0594 25.3171 44.7834V41.0324C25.3171 40.7508 25.2974 40.5509 25.258 40.4326C25.2186 40.3143 25.1454 40.2383 25.0383 40.2045C24.937 40.1651 24.7877 40.1341 24.5906 40.1115L24.4216 40.0946V39.8834L25.672 39.9088H26.8547C27.2377 39.9088 27.5925 39.9538 27.9192 40.044C28.2459 40.1284 28.5078 40.2777 28.7049 40.4917C28.9077 40.7057 29.009 41.0042 29.009 41.3872C29.009 41.7252 28.933 42.0011 28.7809 42.2152C28.6345 42.4236 28.4374 42.5841 28.1896 42.6967C27.9474 42.8037 27.6827 42.8798 27.3954 42.9248C27.8122 42.953 28.1501 43.0966 28.4092 43.3557C28.6739 43.6091 28.8429 43.9837 28.9161 44.4793C28.9668 44.7947 29.0288 45.0425 29.102 45.2228C29.1808 45.3974 29.2653 45.5213 29.3554 45.5945C29.4512 45.6621 29.5469 45.6959 29.6427 45.6959C29.7046 45.6959 29.7638 45.6846 29.8201 45.6621C29.882 45.6395 29.9355 45.617 29.9806 45.5945L30.0397 45.8057C29.9496 45.8507 29.8285 45.893 29.6765 45.9324C29.5244 45.9775 29.3695 46 29.2118 46ZM26.8716 40.1284H26.0352V42.7559H26.7449C27.2856 42.7559 27.6629 42.646 27.877 42.4264C28.0966 42.2067 28.2065 41.8772 28.2065 41.4379C28.2065 41.0211 28.1079 40.7001 27.9108 40.4748C27.7136 40.2439 27.3673 40.1284 26.8716 40.1284ZM19.5374 45.7212V45.9324L20.9567 45.9071L22.3338 45.9324V45.7212L22.1479 45.7043C21.9226 45.6818 21.748 45.6536 21.6241 45.6198C21.5002 45.5804 21.4129 45.5015 21.3622 45.3833C21.3171 45.2594 21.2946 45.0594 21.2946 44.7834V40.1369H22.545C22.7871 40.1369 22.9815 40.196 23.1279 40.3143C23.2743 40.4269 23.4011 40.5959 23.5081 40.8212C23.6207 41.0465 23.7418 41.3225 23.8713 41.6491L24.0572 41.5984L23.846 40.5593L23.7531 39.8834L21.3369 39.9088H20.5343L18.1265 39.8834L18.0336 40.5593L17.8224 41.5984L17.9998 41.6407C18.1462 41.2746 18.2729 40.9817 18.38 40.7621C18.4926 40.5424 18.6221 40.3847 18.7686 40.289C18.9207 40.1876 19.1262 40.1369 19.3853 40.1369H20.5765V44.7834C20.5765 45.0594 20.5512 45.2594 20.5005 45.3833C20.4554 45.5015 20.3709 45.5804 20.247 45.6198C20.1288 45.6536 19.9542 45.6818 19.7232 45.7043L19.5374 45.7212ZM11.5262 45.9409V45.7297L11.6951 45.7128C11.8923 45.6902 12.0415 45.6621 12.1429 45.6283C12.2499 45.5945 12.3231 45.5156 12.3626 45.3917C12.402 45.2678 12.4217 45.0651 12.4217 44.7834V40.4241C12.371 40.3622 12.295 40.2946 12.1936 40.2214C12.0922 40.1425 11.943 40.1031 11.7458 40.1031H11.4924V39.8834L13.1313 39.9088C13.2327 40.0496 13.3679 40.2355 13.5369 40.4664C13.7115 40.6973 13.903 40.9536 14.1113 41.2352C14.3254 41.5168 14.545 41.8068 14.7703 42.1053C14.9956 42.3982 15.2124 42.6826 15.4208 42.9586C15.6349 43.2346 15.8263 43.4824 15.9953 43.7021C16.1643 43.9217 16.2966 44.0963 16.3924 44.2259V41.0324C16.3924 40.7508 16.3727 40.5509 16.3332 40.4326C16.2938 40.3087 16.2206 40.2298 16.1136 40.196C16.0122 40.1566 15.863 40.1284 15.6658 40.1115L15.4969 40.0946V39.8834L16.5951 39.9088L17.6258 39.8834V40.0946L17.4569 40.1115C17.2654 40.1341 17.1161 40.1651 17.0091 40.2045C16.9021 40.2383 16.8289 40.3143 16.7895 40.4326C16.75 40.5509 16.7303 40.7508 16.7303 41.0324V45.9071H16.4769C16.3868 45.7212 16.2516 45.4931 16.0714 45.2228C15.8968 44.9468 15.694 44.6455 15.4631 44.3188C15.2322 43.9921 14.99 43.6598 14.7365 43.3219C14.4887 42.9783 14.2409 42.646 13.9931 42.325C13.7453 42.004 13.5143 41.7111 13.3003 41.4464C13.0863 41.1817 12.9061 40.962 12.7596 40.7874V44.7834C12.7596 45.0651 12.7793 45.2678 12.8188 45.3917C12.8582 45.5156 12.9314 45.5945 13.0384 45.6283C13.1454 45.6621 13.2947 45.6902 13.4862 45.7128L13.6551 45.7297V45.9409L12.5738 45.9071L11.5262 45.9409ZM6.04848 45.7212V45.9324L7.29882 45.9071H10.7711L10.7964 45.1467L10.8556 44.1329H10.6443C10.6106 44.5666 10.5486 44.8961 10.4585 45.1214C10.3684 45.341 10.2304 45.4875 10.0445 45.5607C9.86429 45.6339 9.61084 45.6705 9.28417 45.6705H8.49848C8.17745 45.6705 7.95779 45.6283 7.83951 45.5438C7.72124 45.4537 7.6621 45.2734 7.6621 45.0031V42.8657H8.60831C8.80544 42.8657 8.95469 42.953 9.05607 43.1276C9.15745 43.2965 9.20814 43.5866 9.20814 43.9978H9.41934L9.394 42.7474L9.41934 41.6153H9.20814C9.19687 41.8913 9.16308 42.1025 9.10676 42.249C9.05607 42.3954 8.98848 42.4968 8.904 42.5531C8.81952 42.6038 8.72095 42.6291 8.60831 42.6291H7.6621V40.1538H8.77727C9.09268 40.1538 9.34894 40.1679 9.54607 40.196C9.74883 40.2186 9.90934 40.2692 10.0276 40.3481C10.1459 40.4213 10.236 40.534 10.298 40.686C10.3656 40.8381 10.4191 41.0409 10.4585 41.2943H10.6612L10.5937 40.5171L10.5768 39.9088H7.29882L6.04848 39.8834V40.0947L6.21744 40.1115C6.41457 40.1341 6.56382 40.1651 6.6652 40.2045C6.77221 40.2383 6.84543 40.3143 6.88486 40.4326C6.92428 40.5509 6.944 40.7508 6.944 41.0324V44.7834C6.944 45.0594 6.92428 45.2594 6.88486 45.3833C6.84543 45.5015 6.77221 45.5804 6.6652 45.6198C6.56382 45.6536 6.41457 45.6818 6.21744 45.7043L6.04848 45.7212ZM2.92475 46C2.35026 46 1.85463 45.8676 1.43785 45.6029C1.0267 45.3382 0.708482 44.9749 0.483194 44.5131C0.263539 44.0456 0.153711 43.5106 0.153711 42.9079C0.153711 42.4574 0.22693 42.0434 0.373366 41.666C0.519803 41.2887 0.722562 40.9592 0.981643 40.6776C1.24072 40.396 1.53923 40.1791 1.87716 40.0271C2.22072 39.8694 2.58682 39.7905 2.97544 39.7905C3.319 39.7905 3.60061 39.8299 3.82027 39.9088C4.04555 39.982 4.21452 40.0468 4.32716 40.1031C4.40038 40.1369 4.46797 40.1679 4.52992 40.196C4.59188 40.2186 4.63412 40.2298 4.65665 40.2298C4.7186 40.2298 4.76929 40.2073 4.80871 40.1622C4.84814 40.1115 4.87348 40.0271 4.88475 39.9088H5.09596L5.07906 40.8972L5.09596 41.8857H4.88475C4.80027 41.2999 4.59751 40.8465 4.27647 40.5255C3.95544 40.2045 3.53021 40.044 3.00078 40.044C2.62906 40.044 2.31647 40.12 2.06302 40.2721C1.80957 40.4185 1.60682 40.6241 1.45475 40.8888C1.30268 41.1479 1.19003 41.452 1.11682 41.8012C1.04923 42.1448 1.01544 42.5137 1.01544 42.9079C1.01544 43.4993 1.07739 44.0062 1.2013 44.4286C1.33084 44.851 1.53923 45.1777 1.82647 45.4086C2.11934 45.6339 2.51078 45.7466 3.00078 45.7466C3.36687 45.7466 3.68509 45.6621 3.95544 45.4931C4.22578 45.3241 4.44262 45.0989 4.60596 44.8172C4.77492 44.5356 4.8763 44.2259 4.91009 43.8879H5.11285L5.09596 44.9186L5.1213 45.9071H4.91854L4.8932 45.8141C4.87067 45.7409 4.84251 45.6733 4.80871 45.6114C4.78055 45.5438 4.72986 45.51 4.65665 45.51C4.61722 45.51 4.56935 45.5213 4.51302 45.5438C4.46234 45.5663 4.4032 45.5945 4.33561 45.6283C4.18917 45.7015 3.99768 45.7832 3.76113 45.8733C3.52458 45.9578 3.24578 46 2.92475 46ZM35.5578 18.3489V18.9484L38.7637 18.8702L41.9695 18.9484V18.3489L41.5525 18.2968C41.0486 18.2273 40.6577 18.1491 40.3796 18.0622C40.119 17.958 39.9366 17.7408 39.8323 17.4106C39.728 17.0631 39.6759 16.4984 39.6759 15.7165V11.5984C39.7628 11.1293 39.8757 10.6949 40.0147 10.2952C40.1538 9.89557 40.3015 9.53068 40.4578 9.20054C40.649 8.80089 40.8749 8.48812 41.1355 8.26224C41.4135 8.03635 41.6741 7.92341 41.9174 7.92341C42.1607 7.92341 42.2823 8.01029 42.2823 8.18405C42.2823 8.27093 42.2562 8.39256 42.2041 8.54894C42.1694 8.70532 42.152 8.87039 42.152 9.04415C42.152 9.27004 42.2476 9.46986 42.4387 9.64362C42.6298 9.81738 42.9078 9.90426 43.2727 9.90426C43.655 9.90426 43.9591 9.78263 44.185 9.53937C44.4109 9.2961 44.5238 8.98334 44.5238 8.60107C44.5238 8.27093 44.4022 7.9321 44.1589 7.58458C43.9156 7.21968 43.4291 7.03724 42.6993 7.03724C42.0564 7.03724 41.4569 7.27181 40.9009 7.74096C40.3449 8.21011 39.8757 9.02678 39.4935 10.191H39.3892L39.6759 7.19362C38.9635 7.29787 38.2772 7.37607 37.6169 7.42819C36.9566 7.48032 36.2702 7.50639 35.5578 7.50639V8.10585C36.027 8.10585 36.4353 8.14929 36.7828 8.23617C37.1303 8.30568 37.391 8.49681 37.5647 8.80958C37.7559 9.12234 37.8515 9.61756 37.8515 10.2952V15.7165C37.8515 16.4984 37.7993 17.0631 37.6951 17.4106C37.5908 17.7408 37.3997 17.958 37.1217 18.0622C36.861 18.1491 36.4788 18.2273 35.9749 18.2968L35.5578 18.3489ZM26.247 19.1569C25.413 19.1569 24.7179 18.9484 24.1619 18.5314C23.6233 18.097 23.3539 17.4975 23.3539 16.733C23.3539 15.9684 23.6928 15.2908 24.3704 14.7C25.0481 14.0919 25.8387 13.5445 26.7422 13.058C27.4199 12.6757 28.0975 12.3456 28.7752 12.0676C29.4529 11.7895 30.035 11.555 30.5215 11.3638V10.5298C30.5215 9.57412 30.339 8.86171 29.9741 8.39256C29.6266 7.92341 28.9577 7.68883 27.9672 7.68883C27.4981 7.68883 27.0376 7.74965 26.5858 7.87128C26.1341 7.99291 25.9082 8.2188 25.9082 8.54894C25.9082 8.61844 25.9169 8.69664 25.9342 8.78351C25.969 8.87039 25.9951 8.95727 26.0124 9.04415C26.0993 9.27004 26.1428 9.50461 26.1428 9.74788C26.1428 10.078 26.0211 10.3387 25.7779 10.5298C25.552 10.7036 25.274 10.7904 24.9438 10.7904C24.6311 10.7904 24.3704 10.6775 24.1619 10.4516C23.9534 10.2083 23.8491 9.92164 23.8491 9.59149C23.8491 8.96596 24.0837 8.47075 24.5529 8.10585C25.0394 7.72358 25.6302 7.45426 26.3252 7.29787C27.0202 7.12412 27.6892 7.03724 28.3321 7.03724C29.7222 7.03724 30.7387 7.35869 31.3816 8.0016C32.0245 8.64451 32.346 9.69575 32.346 11.1553V15.8468C32.346 16.6114 32.3981 17.2021 32.5023 17.6192C32.624 18.0362 32.8846 18.2447 33.2843 18.2447C33.5449 18.2447 33.7708 18.1491 33.9619 17.958C34.153 17.7669 34.2834 17.5583 34.3529 17.3325L34.822 17.5149C34.683 18.0188 34.4311 18.4184 34.0662 18.7138C33.7187 19.0092 33.2321 19.1569 32.6066 19.1569C31.8421 19.1569 31.3121 18.9397 31.0167 18.5053C30.7387 18.0536 30.5823 17.4628 30.5476 16.733C30.061 17.5149 29.4442 18.1144 28.697 18.5314C27.9499 18.9484 27.1332 19.1569 26.247 19.1569ZM25.3869 16.6027C25.3869 17.0892 25.5259 17.4802 25.8039 17.7755C26.0993 18.0536 26.525 18.1926 27.0811 18.1926C27.585 18.1926 28.0628 18.0709 28.5146 17.8277C28.9837 17.5844 29.3921 17.2803 29.7396 16.9154C30.0871 16.5332 30.3477 16.1248 30.5215 15.6904V11.8851C29.9481 12.1284 29.3573 12.4151 28.7491 12.7452C28.1584 13.058 27.6023 13.4142 27.0811 13.8138C26.5772 14.2135 26.1688 14.6479 25.8561 15.117C25.5433 15.5688 25.3869 16.064 25.3869 16.6027ZM0 18.3489V18.9484L3.20585 18.8702L6.15107 18.9484V18.3489L5.73405 18.2968C5.29965 18.2273 4.96082 18.1491 4.71756 18.0622C4.49167 17.958 4.33529 17.7408 4.24841 17.4106C4.16153 17.0631 4.11809 16.4984 4.11809 15.7165V10.5037C4.2571 10.1041 4.48298 9.69575 4.79575 9.27873C5.10852 8.86171 5.49947 8.51419 5.96862 8.23617C6.43777 7.95816 6.97642 7.81915 7.58458 7.81915C8.34912 7.81915 8.9399 8.04504 9.35692 8.49681C9.77394 8.93121 9.98246 9.53068 9.98246 10.2952V15.7165C9.98246 16.4984 9.93902 17.0631 9.85214 17.4106C9.76526 17.7408 9.60019 17.958 9.35692 18.0622C9.13104 18.1491 8.80089 18.2273 8.3665 18.2968L7.94947 18.3489V18.9484L10.8947 18.8702L13.8399 18.9484V18.3489L13.4229 18.2968C12.9885 18.2273 12.6497 18.1491 12.4064 18.0622C12.1805 17.958 12.0241 17.7408 11.9372 17.4106C11.8504 17.0631 11.8069 16.4984 11.8069 15.7165V10.7383V10.5037C11.9459 10.1041 12.1631 9.69575 12.4585 9.27873C12.7713 8.86171 13.1622 8.51419 13.6314 8.23617C14.1005 7.95816 14.6479 7.81915 15.2734 7.81915C16.038 7.81915 16.6287 8.04504 17.0458 8.49681C17.4628 8.93121 17.6713 9.53068 17.6713 10.2952V15.7165C17.6713 16.4984 17.6279 17.0631 17.541 17.4106C17.4541 17.7408 17.289 17.958 17.0458 18.0622C16.8199 18.1665 16.4897 18.2447 16.0553 18.2968L15.6383 18.3489V18.9484L18.5835 18.8702L21.7633 18.9484V18.3489L21.3463 18.2968C20.8424 18.2273 20.4514 18.1404 20.1734 18.0362C19.9128 17.9319 19.7303 17.7147 19.6261 17.3846C19.5392 17.0371 19.4958 16.481 19.4958 15.7165V10.7383C19.4958 9.45249 19.1569 8.51419 18.4793 7.92341C17.819 7.33263 16.9241 7.03724 15.7947 7.03724C14.8216 7.03724 13.9789 7.28919 13.2665 7.79309C12.5541 8.27961 12.0154 8.83564 11.6505 9.46117C11.442 8.62713 11.025 8.01898 10.3995 7.63671C9.79132 7.23706 9.02678 7.03724 8.10586 7.03724C7.20231 7.03724 6.40302 7.25444 5.70798 7.68883C5.03032 8.12323 4.50036 8.63582 4.11809 9.2266V7.19362C3.40568 7.31525 2.71933 7.40213 2.05905 7.45426C1.39876 7.48901 0.712414 7.50639 0 7.50639V8.10585C0.469151 8.10585 0.877485 8.14929 1.225 8.23617C1.57252 8.32305 1.83316 8.52288 2.00692 8.83564C2.19805 9.13103 2.29362 9.59149 2.29362 10.217V15.7165C2.29362 16.4984 2.24149 17.0631 2.13724 17.4106C2.03298 17.7408 1.84185 17.958 1.56383 18.0622C1.30319 18.1491 0.920925 18.2273 0.417023 18.2968L0 18.3489ZM31.3858 35.5586C30.5518 35.5586 29.8567 35.3501 29.3007 34.933C28.762 34.4986 28.4927 33.8992 28.4927 33.1346C28.4927 32.3701 28.8315 31.6924 29.5092 31.1017C30.1869 30.4935 30.9775 29.9462 31.881 29.4596C32.5587 29.0774 33.2363 28.7472 33.914 28.4692C34.5916 28.1912 35.1737 27.9566 35.6603 27.7655V26.9314C35.6603 25.9758 35.4778 25.2634 35.1129 24.7942C34.7654 24.3251 34.0964 24.0905 33.106 24.0905C32.6369 24.0905 32.1764 24.1513 31.7246 24.2729C31.2729 24.3946 31.047 24.6205 31.047 24.9506C31.047 25.0201 31.0557 25.0983 31.073 25.1852C31.1078 25.272 31.1338 25.3589 31.1512 25.4458C31.2381 25.6717 31.2815 25.9063 31.2815 26.1495C31.2815 26.4797 31.1599 26.7403 30.9166 26.9314C30.6908 27.1052 30.4127 27.1921 30.0826 27.1921C29.7698 27.1921 29.5092 27.0791 29.3007 26.8533C29.0922 26.61 28.9879 26.3233 28.9879 25.9931C28.9879 25.3676 29.2225 24.8724 29.6916 24.5075C30.1782 24.1252 30.7689 23.8559 31.464 23.6995C32.159 23.5258 32.828 23.4389 33.4709 23.4389C34.861 23.4389 35.8775 23.7603 36.5204 24.4033C37.1633 25.0462 37.4847 26.0974 37.4847 27.557V32.2485C37.4847 33.013 37.5369 33.6038 37.6411 34.0208C37.7627 34.4378 38.0234 34.6463 38.423 34.6463C38.6837 34.6463 38.9096 34.5508 39.1007 34.3596C39.2918 34.1685 39.4221 33.96 39.4916 33.7341L39.9608 33.9166C39.8218 34.4205 39.5698 34.8201 39.2049 35.1155C38.8574 35.4109 38.3709 35.5586 37.7454 35.5586C36.9808 35.5586 36.4509 35.3414 36.1555 34.907C35.8775 34.4552 35.7211 33.8644 35.6863 33.1346C35.1998 33.9166 34.583 34.516 33.8358 34.933C33.0886 35.3501 32.272 35.5586 31.3858 35.5586ZM30.5257 33.0043C30.5257 33.4908 30.6647 33.8818 30.9427 34.1772C31.2381 34.4552 31.6638 34.5942 32.2198 34.5942C32.7237 34.5942 33.2016 34.4726 33.6534 34.2293C34.1225 33.9861 34.5308 33.682 34.8783 33.3171C35.2259 32.9348 35.4865 32.5265 35.6603 32.0921V28.2868C35.0869 28.53 34.4961 28.8167 33.8879 29.1469C33.2971 29.4596 32.7411 29.8158 32.2198 30.2155C31.7159 30.6151 31.3076 31.0495 30.9948 31.5187C30.6821 31.9705 30.5257 32.4657 30.5257 33.0043ZM12.4182 34.7506V35.3501L15.6241 35.2719L18.8299 35.3501V34.7506L18.4129 34.6985C17.909 34.629 17.518 34.5508 17.24 34.4639C16.9794 34.3596 16.7969 34.1424 16.6927 33.8123C16.5884 33.4648 16.5363 32.9001 16.5363 32.1182V26.9054C16.6927 26.5231 16.9359 26.1235 17.2661 25.7064C17.5962 25.2894 18.0132 24.9419 18.5171 24.6639C19.021 24.3685 19.5858 24.2208 20.2113 24.2208C21.028 24.2208 21.6622 24.4554 22.114 24.9245C22.5657 25.3763 22.7916 26.0366 22.7916 26.9054V32.1182C22.7916 32.9001 22.7395 33.4648 22.6352 33.8123C22.531 34.1424 22.3398 34.3596 22.0618 34.4639C21.8012 34.5508 21.4189 34.629 20.915 34.6985L20.498 34.7506V35.3501L23.7039 35.2719L26.9097 35.3501V34.7506L26.4927 34.6985C25.9888 34.629 25.5978 34.5508 25.3198 34.4639C25.0592 34.3596 24.8767 34.1424 24.7725 33.8123C24.6682 33.4648 24.6161 32.9001 24.6161 32.1182V26.9054C24.6161 25.7933 24.2686 24.9419 23.5735 24.3511C22.8959 23.743 21.9663 23.4389 20.7847 23.4389C19.8117 23.4389 18.9602 23.6735 18.2304 24.1426C17.5007 24.5944 16.9359 25.1157 16.5363 25.7064V23.5953C15.8239 23.7169 15.1375 23.8038 14.4773 23.8559C13.817 23.8907 13.1306 23.908 12.4182 23.908V24.5075H12.6007C13.2609 24.5075 13.7735 24.6378 14.1384 24.8985C14.5207 25.1417 14.7118 25.7151 14.7118 26.6187V32.1182C14.7118 32.9001 14.6597 33.4648 14.5554 33.8123C14.4512 34.1424 14.2601 34.3596 13.982 34.4639C13.7214 34.5508 13.3391 34.629 12.8352 34.6985L12.4182 34.7506ZM3.10731 35.5586C2.27327 35.5586 1.57823 35.3501 1.02221 34.9331C0.483552 34.4987 0.214226 33.8992 0.214226 33.1347C0.214226 32.3701 0.553056 31.6925 1.23072 31.1017C1.90838 30.4935 2.69898 29.9462 3.60253 29.4597C4.28019 29.0774 4.95785 28.7472 5.63551 28.4692C6.31317 28.1912 6.89526 27.9566 7.38179 27.7655V26.9315C7.38179 25.9758 7.19934 25.2634 6.83444 24.7942C6.48693 24.3251 5.81795 24.0905 4.82753 24.0905C4.35838 24.0905 3.89792 24.1513 3.44614 24.2729C2.99437 24.3946 2.76848 24.6205 2.76848 24.9506C2.76848 25.0201 2.77717 25.0983 2.79455 25.1852C2.8293 25.2721 2.85536 25.3589 2.87274 25.4458C2.95962 25.6717 3.00306 25.9063 3.00306 26.1495C3.00306 26.4797 2.88143 26.7403 2.63816 26.9315C2.41228 27.1052 2.13426 27.1921 1.80412 27.1921C1.49135 27.1921 1.23072 27.0792 1.02221 26.8533C0.813695 26.61 0.709439 26.3233 0.709439 25.9932C0.709439 25.3676 0.944014 24.8724 1.41316 24.5075C1.89969 24.1252 2.49047 23.8559 3.1855 23.6995C3.88054 23.5258 4.54951 23.4389 5.19242 23.4389C6.58249 23.4389 7.59898 23.7604 8.24189 24.4033C8.8848 25.0462 9.20625 26.0974 9.20625 27.557V32.2485C9.20625 33.013 9.25838 33.6038 9.36264 34.0208C9.48427 34.4378 9.74491 34.6464 10.1446 34.6464C10.4052 34.6464 10.6311 34.5508 10.8222 34.3597C11.0133 34.1685 11.1437 33.96 11.2132 33.7341L11.6823 33.9166C11.5433 34.4205 11.2914 34.8201 10.9265 35.1155C10.5789 35.4109 10.0924 35.5586 9.46689 35.5586C8.70235 35.5586 8.17239 35.3414 7.877 34.907C7.59898 34.4552 7.4426 33.8644 7.40785 33.1347C6.92132 33.9166 6.30448 34.516 5.55732 34.9331C4.81015 35.3501 3.99348 35.5586 3.10731 35.5586ZM2.24721 33.0043C2.24721 33.4909 2.38621 33.8818 2.66423 34.1772C2.95962 34.4552 3.38533 34.5942 3.94136 34.5942C4.44526 34.5942 4.9231 34.4726 5.37487 34.2293C5.84402 33.9861 6.25235 33.682 6.59987 33.3171C6.94739 32.9348 7.20803 32.5265 7.38179 32.0921V28.2868C6.80838 28.53 6.2176 28.8167 5.60944 29.1469C5.01866 29.4597 4.46263 29.8159 3.94136 30.2155C3.43746 30.6152 3.02912 31.0495 2.71636 31.5187C2.40359 31.9705 2.24721 32.4657 2.24721 33.0043ZM89.8656 34.3899L90.0959 35.0478H102.3L102.333 33.3044L102.727 29.8505H101.971C101.817 31.1004 101.477 32.0434 100.951 32.6794C100.425 33.2934 99.7668 33.7101 98.9774 33.9294C98.2098 34.1267 97.3327 34.2254 96.3458 34.2254H92.7932L102.793 21.3308L102.563 20.7058H91.1814L90.8196 23.0413L90.0959 26.0018H90.8525C91.0937 24.7518 91.4884 23.8089 92.0367 23.1729C92.6068 22.515 93.3415 22.0764 94.2406 21.8571C95.1397 21.6159 96.2033 21.4953 97.4313 21.4953H99.8326L89.8656 34.3899ZM70.0723 35.1465V34.3899L70.5986 34.3241C71.2345 34.2364 71.717 34.1377 72.0459 34.0281C72.3968 33.8965 72.638 33.6224 72.7696 33.2057C72.9012 32.7671 72.967 32.0544 72.967 31.0676V24.1268C72.967 22.9865 72.7257 22.2628 72.2433 21.9558C71.7828 21.6269 71.1358 21.4624 70.3025 21.4624H70.0723V20.7058C70.9714 20.7058 71.8376 20.6839 72.6709 20.64C73.5042 20.5743 74.3704 20.4646 75.2696 20.3111V22.9755C75.7739 22.2299 76.4867 21.572 77.4077 21.0019C78.3287 20.4098 79.4033 20.1137 80.6313 20.1137C82.1226 20.1137 83.2958 20.4975 84.151 21.265C85.0282 22.0106 85.4668 23.0852 85.4668 24.4887V31.0676C85.4668 32.0544 85.5326 32.7671 85.6642 33.2057C85.7958 33.6224 86.026 33.8965 86.355 34.0281C86.7058 34.1377 87.1993 34.2364 87.8352 34.3241L88.3615 34.3899V35.1465L84.3155 35.0478L80.2695 35.1465V34.3899L80.7958 34.3241C81.4318 34.2364 81.9142 34.1377 82.2432 34.0281C82.594 33.8965 82.8353 33.6224 82.9668 33.2057C83.0984 32.7671 83.1642 32.0544 83.1642 31.0676V24.4887C83.1642 23.3922 82.8791 22.5589 82.309 21.9887C81.7388 21.3966 80.9384 21.1006 79.9077 21.1006C79.1182 21.1006 78.4055 21.287 77.7695 21.6598C77.1336 22.0106 76.6073 22.4492 76.1906 22.9755C75.7739 23.5019 75.4669 24.0062 75.2696 24.4887V31.0676C75.2696 32.0544 75.3354 32.7671 75.4669 33.2057C75.5985 33.6224 75.8288 33.8965 76.1577 34.0281C76.5086 34.1377 77.002 34.2364 77.638 34.3241L78.1643 34.3899V35.1465L74.1183 35.0478L70.0723 35.1465ZM55.69 34.6202C56.3918 35.1465 57.269 35.4096 58.3216 35.4096C59.44 35.4096 60.4707 35.1465 61.4137 34.6202C62.3566 34.0938 63.1351 33.3373 63.7492 32.3504C63.793 33.2715 63.9904 34.0171 64.3413 34.5873C64.7141 35.1355 65.3829 35.4096 66.3478 35.4096C67.1373 35.4096 67.7513 35.2232 68.1899 34.8504C68.6504 34.4776 68.9684 33.9732 69.1438 33.3373L68.5517 33.107C68.464 33.3921 68.2995 33.6553 68.0583 33.8965C67.8171 34.1377 67.532 34.2583 67.2031 34.2583C66.6987 34.2583 66.3697 33.9952 66.2162 33.4688C66.0847 32.9425 66.0189 32.1969 66.0189 31.232V25.311C66.0189 23.469 65.6132 22.1422 64.8018 21.3308C63.9904 20.5194 62.7075 20.1137 60.9531 20.1137C60.1417 20.1137 59.2975 20.2234 58.4203 20.4427C57.5431 20.64 56.7975 20.9799 56.1835 21.4624C55.5914 21.9229 55.2953 22.5479 55.2953 23.3374C55.2953 23.754 55.4269 24.1159 55.69 24.4229C55.9532 24.708 56.2821 24.8505 56.6769 24.8505C57.0935 24.8505 57.4444 24.7409 57.7295 24.5216C58.0365 24.2804 58.19 23.9514 58.19 23.5347C58.19 23.2277 58.1352 22.9317 58.0255 22.6466C58.0036 22.5369 57.9707 22.4273 57.9269 22.3177C57.9049 22.208 57.894 22.1093 57.894 22.0216C57.894 21.6049 58.179 21.3199 58.7492 21.1663C59.3194 21.0128 59.9005 20.9361 60.4926 20.9361C61.7426 20.9361 62.5869 21.2321 63.0255 21.8242C63.486 22.4163 63.7163 23.3154 63.7163 24.5216V25.5742C63.1022 25.8154 62.3676 26.1115 61.5123 26.4623C60.6571 26.8132 59.8018 27.2299 58.9466 27.7123C57.8062 28.3264 56.8084 29.0171 55.9532 29.7847C55.0979 30.5303 54.6703 31.3855 54.6703 32.3504C54.6703 33.3153 55.0102 34.0719 55.69 34.6202ZM57.7624 33.6662C57.4115 33.2934 57.2361 32.8 57.2361 32.186C57.2361 31.5062 57.4334 30.8812 57.8282 30.311C58.2229 29.7189 58.7382 29.1707 59.3742 28.6663C60.0321 28.1619 60.7338 27.7123 61.4794 27.3176C62.247 26.9009 62.9926 26.5391 63.7163 26.2321V31.0347C63.497 31.5829 63.168 32.0983 62.7294 32.5807C62.2908 33.0412 61.7755 33.425 61.1834 33.732C60.6132 34.039 60.0102 34.1925 59.3742 34.1925C58.6725 34.1925 58.1352 34.0171 57.7624 33.6662ZM47.4067 35.4096C46.5734 35.4096 45.8607 35.3109 45.2686 35.1136C44.6984 34.9381 44.2489 34.7737 43.9199 34.6202C43.5691 34.4447 43.3498 34.357 43.2621 34.357C43.1743 34.357 43.0976 34.4009 43.0318 34.4886C42.9879 34.5544 42.9331 34.7408 42.8673 35.0478H42.1107L42.2423 32.8768L42.341 30.0807H43.0647L43.0976 30.6399C43.1414 31.254 43.3388 31.868 43.6897 32.482C44.0625 33.0961 44.5669 33.6114 45.2028 34.0281C45.8388 34.4447 46.5734 34.6531 47.4067 34.6531C48.3059 34.6531 49.0295 34.4228 49.5778 33.9623C50.126 33.5017 50.4001 32.8658 50.4001 32.0544C50.4001 31.3526 50.115 30.7606 49.5449 30.2781C48.9966 29.7957 48.2291 29.368 47.2423 28.9952L46.0581 28.5347C44.9177 28.0961 44.0515 27.5479 43.4594 26.89C42.8892 26.2321 42.6042 25.3878 42.6042 24.3571C42.6042 23.4799 42.8015 22.7343 43.1963 22.1203C43.6129 21.4843 44.1502 20.9909 44.8081 20.64C45.4879 20.2892 46.2116 20.1137 46.9791 20.1137C47.5274 20.1137 47.9879 20.1795 48.3607 20.3111C48.7554 20.4427 49.0844 20.5743 49.3475 20.7058C49.5668 20.8155 49.7532 20.8703 49.9067 20.8703C50.126 20.8703 50.3014 20.64 50.433 20.1795L51.1567 20.2124L51.0251 22.3506V24.6532H50.2686C50.115 23.6225 49.7642 22.7343 49.2159 21.9887C48.6677 21.2212 47.8782 20.8374 46.8475 20.8374C46.1239 20.8374 45.5098 21.0677 45.0055 21.5282C44.523 21.9887 44.2818 22.5699 44.2818 23.2716C44.2818 23.9514 44.534 24.5216 45.0383 24.9821C45.5647 25.4207 46.2774 25.8154 47.1765 26.1663L48.4594 26.6597C49.7971 27.1641 50.7181 27.7781 51.2225 28.5018C51.7488 29.2036 52.012 30.0478 52.012 31.0347C52.012 32.1969 51.6172 33.2167 50.8278 34.0938C50.0383 34.971 48.898 35.4096 47.4067 35.4096ZM106.059 1.56214C105.553 2.21286 105.251 2.94714 105.373 4.28215C105.442 5.03976 105.512 6.12267 105.585 7.24619C105.713 9.2201 105.849 11.3194 106 12C103.903 12.5143 100.724 12.9922 98.7014 12.9922C98.0561 12.9922 97.6067 12.9717 97.2419 12.955C96.7997 12.9348 96.4818 12.9202 96.0902 12.9549C96.2504 13.8536 97.2163 14.8175 97.9858 14.8175C98.953 14.8175 100.51 14.584 102.039 14.3547C104.075 14.0495 106.06 13.7518 106.534 14.0229C107.009 16.792 107.885 21.1299 108.872 23.7983C109.449 23.6626 109.809 23.7983 109.809 23.7983L108.495 13.9416C108.93 13.7043 111.186 12.6934 112.586 12.3083C113.744 11.9898 114.589 11.7799 115.205 11.627C116.78 11.2355 116.858 11.2161 116.858 10.7L108.257 11.5681L107.189 5.04107C107.158 4.8913 107.128 4.68947 107.093 4.45701C106.955 3.52291 106.743 2.09429 106.059 1.56214Z" fill="#0E0D0B"/>
</svg>
